<svg xmlns="http://www.w3.org/2000/svg" xmlns:xlink="http://www.w3.org/1999/xlink" version="1.1" width="295.0752680398423" height="161.53763401992114" xml:space="preserve"><rect id="backgroundrect" width="100%" height="100%" x="0" y="0" fill="none" stroke="none" class=""/><g class="currentLayer"><title>Layer 1</title><g style="display:none;" id="svg_1"><g style="display:inline;" id="svg_2"><g id="svg_3"><path style="fill:#F6F6F6;" d="M37.763,115.011c-0.413,0-0.752,0.332-0.804,0.782l-1.903,17.342l1.903,16.959 c0.052,0.459,0.391,0.783,0.804,0.783c0.406,0,0.738-0.318,0.804-0.775l2.154-16.967l-2.154-17.342 C38.501,115.328,38.169,115.011,37.763,115.011z" id="svg_4"/><path style="fill:#F6F6F6;" d="M30.623,121.658c-0.406,0-0.723,0.31-0.775,0.752l-1.416,10.725l1.416,10.549 c0.052,0.443,0.369,0.754,0.775,0.754c0.391,0,0.708-0.311,0.774-0.754l1.667-10.549l-1.667-10.725 C31.331,121.96,31.014,121.658,30.623,121.658z" id="svg_5"/><path style="fill:#F6F6F6;" d="M45.347,111.61c-0.509,0-0.915,0.398-0.967,0.952l-1.8,20.573l1.8,19.83 c0.052,0.553,0.458,0.951,0.967,0.951c0.501,0,0.907-0.398,0.974-0.945l2.043-19.836l-2.043-20.573 C46.254,112.009,45.848,111.61,45.347,111.61z" id="svg_6"/><path style="fill:#F6F6F6;" d="M52.996,110.887c-0.598,0-1.084,0.473-1.129,1.114l-1.704,21.142l1.704,20.457 c0.044,0.633,0.531,1.112,1.129,1.112s1.084-0.479,1.136-1.112l1.933-20.457l-1.933-21.148 C54.081,111.36,53.594,110.887,52.996,110.887z" id="svg_7"/><path style="fill:#F6F6F6;" d="M62.003,153.768L62.003,153.768L62.003,153.768z" id="svg_8"/><path style="fill:#F6F6F6;" d="M62.003,113.521c-0.044-0.723-0.605-1.269-1.291-1.269c-0.701,0-1.254,0.546-1.298,1.276 l-1.608,19.615l1.608,20.625c0.044,0.729,0.598,1.275,1.298,1.275c0.686,0,1.247-0.546,1.291-1.275l1.83-20.625L62.003,113.521z" id="svg_9"/><path style="fill:#F6F6F6;" d="M68.487,99.793c-0.782,0-1.424,0.634-1.461,1.446l-1.512,31.919l1.512,20.617 c0.037,0.805,0.679,1.445,1.461,1.445c0.767,0,1.409-0.642,1.46-1.453v0.008l1.704-20.617l-1.704-31.919 C69.896,100.427,69.254,99.793,68.487,99.793z" id="svg_10"/><path style="fill:#F6F6F6;" d="M76.203,92.438c-0.878,0-1.593,0.715-1.63,1.615l-1.409,39.208l1.409,20.491 c0.037,0.899,0.752,1.608,1.63,1.608c0.863,0,1.586-0.709,1.623-1.608v0.009l1.602-20.5l-1.602-39.208 C77.789,93.154,77.066,92.438,76.203,92.438z" id="svg_11"/><path style="fill:#F6F6F6;" d="M84.222,88.897c-0.974,0-1.763,0.782-1.792,1.785l-1.321,42.476l1.321,20.285 c0.029,0.988,0.819,1.771,1.792,1.771c0.959,0,1.748-0.782,1.785-1.778v0.017l1.481-20.293l-1.481-42.476 C85.97,89.679,85.181,88.897,84.222,88.897z" id="svg_12"/><path style="fill:#F6F6F6;" d="M94.136,89.251c-0.037-1.092-0.894-1.947-1.955-1.947c-1.07,0-1.933,0.855-1.955,1.947 l-1.224,43.915l1.224,20.152c0.022,1.076,0.885,1.933,1.955,1.933c1.062,0,1.918-0.849,1.955-1.94l1.372-20.145L94.136,89.251z" id="svg_13"/><polygon style="fill:#F6F6F6;" points="94.136,153.311 94.136,153.311 94.136,153.318 " id="svg_14"/><path style="fill:#F6F6F6;" d="M100.199,88.263c-1.158,0-2.095,0.93-2.117,2.11l-1.122,42.793l1.122,19.969 c0.022,1.172,0.959,2.102,2.117,2.102c1.158,0,2.088-0.93,2.125-2.116v0.017l1.254-19.97l-1.254-42.793 C102.287,89.185,101.357,88.263,100.199,88.263z" id="svg_15"/><path style="fill:#F6F6F6;" d="M108.284,89.657c-1.254,0-2.257,1.003-2.287,2.287l-1.018,41.228l1.025,19.836 c0.022,1.262,1.025,2.266,2.279,2.266c1.254,0,2.266-1.004,2.287-2.278v0.015l1.15-19.837l-1.15-41.235 C110.549,90.661,109.539,89.657,108.284,89.657z" id="svg_16"/><path style="fill:#F6F6F6;" d="M117.786,82.082c-0.391-0.258-0.855-0.42-1.35-0.42c-0.487,0-0.944,0.155-1.328,0.398 c-0.664,0.443-1.114,1.195-1.122,2.051l-0.015,0.465l-0.915,48.583c0,0.028,0.929,19.726,0.929,19.726c0,0.028,0,0.059,0,0.081 c0.03,0.554,0.236,1.062,0.576,1.462c0.442,0.537,1.121,0.883,1.874,0.883c0.664,0,1.269-0.272,1.711-0.715 c0.443-0.441,0.723-1.048,0.738-1.726l0.103-1.949l0.93-17.748l-1.033-49.069C118.87,83.269,118.435,82.524,117.786,82.082z" id="svg_17"/><polygon style="fill:#F6F6F6;" points="118.885,152.883 118.885,152.875 118.885,152.883 118.885,152.875 118.885,152.869 118.885,152.869 118.885,152.875 " id="svg_18"/><path style="fill:#F6F6F6;" d="M125.878,77.434c-0.391-0.243-0.849-0.376-1.335-0.376c-0.62,0-1.195,0.221-1.645,0.598 c-0.583,0.479-0.959,1.202-0.966,2.006l-0.007,0.273l-1.069,53.245l0.546,9.84l0.531,9.584c0.015,1.416,1.188,2.59,2.611,2.59 c1.425,0,2.597-1.174,2.619-2.612v0.022l0,0l1.157-19.424l0,0l-1.157-53.518C127.146,78.718,126.63,77.884,125.878,77.434z" id="svg_19"/><path style="fill:#F6F6F6;" d="M197.814,107.848c-3.252,0-6.357,0.657-9.19,1.844c-1.89-21.407-19.845-38.204-41.737-38.204 c-5.363,0-10.586,1.055-15.203,2.84c-1.793,0.693-2.265,1.409-2.287,2.796v75.39c0.022,1.452,1.15,2.588,2.568,2.729 c0.059,0.008,65.852,0,65.852,0c13.123,0,23.752-10.512,23.752-23.643C221.568,118.485,210.938,107.848,197.814,107.848z" id="svg_20"/></g><path style="fill:#F6F6F6;" d="M47.397,169.54c-2.781-0.656-3.533-1.013-3.533-2.108c0-0.775,0.627-1.58,2.508-1.58 c1.608,0,2.862,0.649,3.991,1.809l2.538-2.465c-1.66-1.727-3.667-2.758-6.403-2.758c-3.459,0-6.27,1.961-6.27,5.147 c0,3.459,2.257,4.483,5.496,5.235c3.312,0.755,3.91,1.263,3.91,2.392c0,1.328-0.981,1.904-3.062,1.904 c-1.682,0-3.26-0.576-4.492-2.009l-2.53,2.259c1.328,1.954,3.887,3.188,6.823,3.188c4.788,0,6.905-2.259,6.905-5.593 C53.276,171.141,50.186,170.188,47.397,169.54z M63.56,162.438c-4.788,0-7.62,3.717-7.62,9.059c0,5.348,2.833,9.059,7.62,9.059 c4.795,0,7.627-3.711,7.627-9.059C71.187,166.152,68.354,162.438,63.56,162.438z M63.56,177.062c-2.833,0-4.013-2.434-4.013-5.567 c0-3.138,1.18-5.57,4.013-5.57c2.84,0,4.02,2.435,4.02,5.57C67.58,174.63,66.399,177.062,63.56,177.062z M85.365,172.57 c0,2.812-1.38,4.545-3.606,4.545c-2.235,0-3.593-1.778-3.593-4.59v-9.811h-3.511v9.855c0,5.127,2.862,7.982,7.104,7.982 c4.463,0,7.119-2.939,7.119-8.027v-9.812h-3.511L85.365,172.57L85.365,172.57z M104.035,170.145c0,0.975,0.044,3.18,0.044,3.836 c-0.221-0.449-0.796-1.326-1.225-1.984l-6.226-9.279h-3.363v17.564h3.467v-7.73c0-0.982-0.052-3.188-0.052-3.844 c0.229,0.457,0.804,1.336,1.225,1.984l6.455,9.59h3.135v-17.564h-3.46V170.145z M117.505,162.716h-5.488v17.563h5.237 c4.515,0,8.984-2.61,8.984-8.784C126.238,165.068,122.521,162.716,117.505,162.716z M117.254,176.863h-1.733v-10.739h1.866 c3.71,0,5.245,1.776,5.245,5.371C122.632,174.71,120.943,176.863,117.254,176.863z M137.105,165.925 c1.578,0,2.582,0.71,3.215,1.904l3.254-1.507c-1.105-2.278-3.105-3.887-6.418-3.887c-4.596,0-7.805,3.717-7.805,9.06 c0,5.547,3.084,9.06,7.68,9.06c3.188,0,5.289-1.484,6.498-3.97l-2.965-1.756c-0.93,1.558-1.853,2.233-3.438,2.233 c-2.634,0-4.168-2.412-4.168-5.567C132.959,168.232,134.473,165.925,137.105,165.925z M150.133,162.716h-3.512v17.563h10.562 v-3.467h-7.051V162.716L150.133,162.716z M166.428,162.438c-4.787,0-7.627,3.717-7.627,9.059c0,5.348,2.84,9.059,7.627,9.059 c4.795,0,7.635-3.711,7.635-9.059C174.062,166.152,171.223,162.438,166.428,162.438z M166.428,177.062 c-2.832,0-4.014-2.434-4.014-5.567c0-3.138,1.182-5.57,4.014-5.57c2.84,0,4.014,2.435,4.014,5.57 C170.439,174.63,169.268,177.062,166.428,177.062z M188.232,172.57c0,2.812-1.371,4.545-3.606,4.545s-3.593-1.778-3.593-4.59 v-9.811h-3.512v9.855c0,5.127,2.863,7.982,7.104,7.982c4.464,0,7.126-2.939,7.126-8.027v-9.812h-3.52V172.57z M201.637,162.716 h-5.496v17.563h5.237c4.528,0,8.985-2.61,8.985-8.784C210.363,165.068,206.66,162.716,201.637,162.716z M201.378,176.863h-1.726 v-10.739h1.857c3.711,0,5.237,1.776,5.237,5.371C206.748,174.71,205.074,176.863,201.378,176.863z" id="svg_21"/></g></g><g id="svg_22" class="selected" fill="#000000" fill-opacity="1"><g id="svg_23" fill="#000000" fill-opacity="1"><g id="svg_24" fill="#000000" fill-opacity="1"><path style="" d="M59.805109560489655,75.33069610595703 c-0.4129999876022339,0 -0.7519998550415039,0.3320000171661377 -0.8040000200271606,0.7899998426437378 l-1.9030001163482666,17.341999053955078 l1.9030001163482666,16.958999633789062 c0.0520000122487545,0.45000001788139343 0.39100000262260437,0.7819997668266296 0.8040000200271606,0.7819997668266296 c0.406000018119812,0 0.7380001544952393,-0.3240000903606415 0.8040000200271606,-0.7819997668266296 l2.1540000438690186,-16.958999633789062 l-2.1540000438690186,-17.350000381469727 C60.542109072208405,75.65569305419922 60.21010833978653,75.33069610595703 59.805109560489655,75.33069610595703 z" id="svg_25" fill="#000000" fill-opacity="1"/><path style="" d="M52.66411072015762,81.97769165039062 c-0.406000018119812,0 -0.7229997515678406,0.3100000023841858 -0.7749998569488525,0.7519998550415039 l-1.4160000085830688,10.732999801635742 l1.4160000085830688,10.541999816894531 c0.0520000122487545,0.44099998474121094 0.36900001764297485,0.7519998550415039 0.7749998569488525,0.7519998550415039 c0.39100000262260437,0 0.7080000042915344,-0.3109999895095825 0.7739998698234558,-0.7519998550415039 l1.6670000553131104,-10.541999816894531 l-1.6670000553131104,-10.732999801635742 C53.37211090326309,82.28668975830078 53.055109560489655,81.97769165039062 52.66411072015762,81.97769165039062 z" id="svg_26" fill="#000000" fill-opacity="1"/><path style="" d="M67.38811355829239,71.93069458007812 c-0.5090000033378601,0 -0.9150000214576721,0.39800000190734863 -0.9670001864433289,0.9510001540184021 l-1.7999999523162842,20.58099937438965 l1.7999999523162842,19.820999145507812 c0.0520000122487545,0.5540000200271606 0.4580000042915344,0.9510001540184021 0.9670001864433289,0.9510001540184021 c0.5009998679161072,0 0.9070001840591431,-0.3970000147819519 0.9740001559257507,-0.9430002570152283 l2.0429999828338623,-19.82900047302246 l-2.0429999828338623,-20.58099937438965 C68.29511123895645,72.32868957519531 67.88910537958145,71.93069458007812 67.38811355829239,71.93069458007812 z" id="svg_27" fill="#000000" fill-opacity="1"/><path style="" d="M75.03710800409317,71.20769500732422 c-0.598000168800354,0 -1.0839999914169312,0.4790000915527344 -1.128999948501587,1.1139999628067017 l-1.7039999961853027,21.142000198364258 l1.7039999961853027,20.45599937438965 c0.044000010937452316,0.6340000033378601 0.5309998393058777,1.1119999885559082 1.128999948501587,1.1119999885559082 c0.598000168800354,0 1.0839999914169312,-0.4790000915527344 1.1360000371932983,-1.1119999885559082 l1.934000015258789,-20.45599937438965 l-1.934000015258789,-21.14900016784668 C76.12210708856583,71.68669128417969 75.63510757684708,71.20769500732422 75.03710800409317,71.20769500732422 z" id="svg_28" fill="#000000" fill-opacity="1"/><path style="" d="M84.04410415887833,114.08769989013672 L84.04410415887833,114.08769989013672 L84.04410415887833,114.08769989013672 z" id="svg_29" fill="#000000" fill-opacity="1"/><path style="" d="M84.04410415887833,73.84069061279297 c-0.044000010937452316,-0.7229997515678406 -0.6040001511573792,-1.2690000534057617 -1.2910000085830688,-1.2690000534057617 c-0.7009998559951782,0 -1.253999948501587,0.5460000038146973 -1.2979999780654907,1.284000039100647 l-1.6080000400543213,19.60700035095215 l1.6080000400543213,20.625 c0.044000010937452316,0.7289998531341553 0.598000168800354,1.284000039100647 1.2979999780654907,1.284000039100647 c0.6870001554489136,0 1.246999979019165,-0.5550000071525574 1.2910000085830688,-1.284000039100647 l1.8300001621246338,-20.625 L84.04410415887833,73.84069061279297 z" id="svg_30" fill="#000000" fill-opacity="1"/><path style="" d="M90.52910476922989,60.11268997192383 c-0.7819997668266296,0 -1.4240000247955322,0.6340000033378601 -1.4609999656677246,1.4530000686645508 l-1.5119998455047607,31.91200065612793 l1.5119998455047607,20.617000579833984 c0.03700000047683716,0.8050000071525574 0.6790000200271606,1.4459999799728394 1.4609999656677246,1.4459999799728394 c0.7670000195503235,0 1.409000039100647,-0.6440001726150513 1.4600000381469727,-1.4539999961853027 v0.00800000037997961 l1.7039999961853027,-20.617000579833984 l-1.7039999961853027,-31.91900062561035 C91.93710952997208,60.7476921081543 91.29611068964005,60.11268997192383 90.52910476922989,60.11268997192383 z" id="svg_31" fill="#000000" fill-opacity="1"/><path style="" d="M98.24410873651505,52.75768280029297 c-0.878000020980835,0 -1.5930001735687256,0.7159998416900635 -1.6299999952316284,1.6159999370574951 l-1.409000039100647,39.21500015258789 l1.409000039100647,20.492000579833984 c0.03700000047683716,0.8930000066757202 0.7519998550415039,1.6070001125335693 1.6299999952316284,1.6070001125335693 c0.8630001544952393,0 1.5859999656677246,-0.7149998545646667 1.6230000257492065,-1.6150000095367432 v0.00800000037997961 l1.6010000705718994,-20.492000579833984 l-1.6010000705718994,-39.21500015258789 C99.83011490106583,53.473690032958984 99.10811477899551,52.75768280029297 98.24410873651505,52.75768280029297 z" id="svg_32" fill="#000000" fill-opacity="1"/><path style="" d="M106.26310592889786,49.21768569946289 c-0.9740001559257507,0 -1.7630000114440918,0.7819997668266296 -1.7919996976852417,1.7849998474121094 l-1.3209999799728394,42.481998443603516 l1.3209999799728394,20.277000427246094 c0.02900000661611557,0.9880001544952393 0.8190000057220459,1.7709999084472656 1.7919996976852417,1.7709999084472656 c0.9590001702308655,0 1.7480000257492065,-0.7819997668266296 1.7849998474121094,-1.7769999504089355 v0.01600000075995922 l1.4819999933242798,-20.28700065612793 L108.0481019616127,51.002685546875 C108.0111146569252,49.99968719482422 107.22211319208145,49.21768569946289 106.26310592889786,49.21768569946289 z" id="svg_33" fill="#000000" fill-opacity="1"/><path style="" d="M116.17710739374161,49.57168960571289 c-0.03700000047683716,-1.0920000076293945 -0.8930000066757202,-1.9480003118515015 -1.9550001621246338,-1.9480003118515015 c-1.0700000524520874,0 -1.933000087738037,0.8560000061988831 -1.9550001621246338,1.9480003118515015 l-1.2239999771118164,43.91400146484375 l1.2239999771118164,20.15999984741211 c0.022000005468726158,1.0780000686645508 0.8849999904632568,1.934000015258789 1.9550001621246338,1.934000015258789 c1.062000036239624,0 1.9179999828338623,-0.8550000190734863 1.9550001621246338,-1.9470000267028809 l1.371999979019165,-20.145999908447266 L116.17710739374161,49.57168960571289 z" id="svg_34" fill="#000000" fill-opacity="1"/><polygon style="" points="116.17710739374161,113.63069915771484 116.17710739374161,113.63069915771484 116.17710739374161,113.64569854736328 " id="svg_35" fill="#000000" fill-opacity="1"/><path style="" d="M122.24110275506973,48.58268737792969 c-1.1579999923706055,0 -2.0950000286102295,0.9300001859664917 -2.117000102996826,2.109999895095825 l-1.121999979019165,42.79199981689453 l1.121999979019165,19.9689998626709 c0.022000005468726158,1.1729999780654907 0.9590001702308655,2.1040000915527344 2.117000102996826,2.1040000915527344 s2.0880000591278076,-0.9310001730918884 2.125,-2.117000102996826 v0.021000005304813385 l1.253999948501587,-19.97599983215332 l-1.253999948501587,-42.79199981689453 C124.32810837030411,49.51268768310547 123.39911514520645,48.58268737792969 122.24110275506973,48.58268737792969 z" id="svg_36" fill="#000000" fill-opacity="1"/><path style="" d="M130.32611709833145,49.98469161987305 c-1.253999948501587,0 -2.256999969482422,1.003000020980835 -2.2869999408721924,2.2790000438690186 l-1.0180000066757202,41.22700119018555 l1.0240000486373901,19.836999893188477 c0.022000005468726158,1.2619999647140503 1.024999976158142,2.2649998664855957 2.2790000438690186,2.2649998664855957 s2.2649998664855957,-1.003000020980835 2.2869999408721924,-2.2790000438690186 v0.01600000075995922 l1.149999976158142,-19.836000442504883 l-1.149999976158142,-41.23500061035156 C132.59012466669083,50.98768615722656 131.58011490106583,49.98469161987305 130.32611709833145,49.98469161987305 z" id="svg_37" fill="#000000" fill-opacity="1"/><path style="" d="M139.8271089196205,42.400691986083984 c-0.39100000262260437,-0.257999986410141 -0.8560000061988831,-0.4129999876022339 -1.350000023841858,-0.4129999876022339 c-0.4870000183582306,0 -0.9440001845359802,0.1469999998807907 -1.3280000686645508,0.39800000190734863 c-0.6640001535415649,0.4360000193119049 -1.1139999628067017,1.187999963760376 -1.121999979019165,2.0429999828338623 l-0.015000002458691597,0.4650000035762787 l-0.9150000214576721,48.5890007019043 c0,0.02900000661611557 0.9290000200271606,19.7189998626709 0.9290000200271606,19.7189998626709 s0,0.059000011533498764 0,0.08000001311302185 c0.030000004917383194,0.5550000071525574 0.23600000143051147,1.062000036239624 0.5759998559951782,1.4609999656677246 c0.44200000166893005,0.5389998555183411 1.121000051498413,0.8949998617172241 1.874000072479248,0.8949998617172241 c0.6640001535415649,0 1.2690000534057617,-0.2809999883174896 1.7109999656677246,-0.7239998579025269 s0.7229997515678406,-1.0479999780654907 0.7380001544952393,-1.7200000286102295 l0.10300000011920929,-1.9550001621246338 l0.9300001859664917,-17.74799919128418 l-1.0329999923706055,-49.0620002746582 C140.91110855340958,43.588687896728516 140.47611099481583,42.843692779541016 139.8271089196205,42.400691986083984 z" id="svg_38" fill="#000000" fill-opacity="1"/><polygon style="" points="140.92612320184708,113.20269012451172 140.92612320184708,113.19368743896484 140.92612320184708,113.20269012451172 140.92612320184708,113.19368743896484 140.92612320184708,113.1886978149414 140.92612320184708,113.19368743896484 140.92612320184708,113.19368743896484 " id="svg_39" fill="#000000" fill-opacity="1"/><path style="" d="M147.91811233758926,37.753684997558594 c-0.39100000262260437,-0.24400000274181366 -0.848000168800354,-0.3760000169277191 -1.3339999914169312,-0.3760000169277191 c-0.6209999918937683,0 -1.1949999332427979,0.22200000286102295 -1.6449999809265137,0.598000168800354 c-0.5830000042915344,0.4790000915527344 -0.9590001702308655,1.2020000219345093 -0.9660000205039978,2.00600004196167 l-0.007000000216066837,0.27300000190734863 l-1.0679999589920044,53.244998931884766 l0.5460000038146973,9.840999603271484 l0.5309998393058777,9.581999778747559 c0.015000002458691597,1.4160000085830688 1.187999963760376,2.5900001525878906 2.6100001335144043,2.5900001525878906 c1.4249999523162842,0 2.5980000495910645,-1.1740000247955322 2.61899995803833,-2.6110000610351562 v0.021000005304813385 l0,0 l1.1579999923706055,-19.42300033569336 l0,0 l-1.1579999923706055,-53.518001556396484 C149.1881166100502,39.037689208984375 148.67011123895645,38.20368194580078 147.91811233758926,37.753684997558594 z" id="svg_40" fill="#000000" fill-opacity="1"/><path style="" d="M219.85809952020645,68.16869354248047 c-3.253999948501587,0 -6.359000205993652,0.656000018119812 -9.190999984741211,1.8440001010894775 c-1.8889999389648438,-21.406999588012695 -19.8439998626709,-38.196998596191406 -41.73699951171875,-38.196998596191406 c-5.361999988555908,0 -10.586000442504883,1.0470000505447388 -15.20300006866455,2.8330001831054688 c-1.7929997444152832,0.6930002570152283 -2.2649998664855957,1.409000039100647 -2.2860000133514404,2.7960000038146973 v75.39700317382812 c0.021000005304813385,1.4530000686645508 1.1480000019073486,2.5820000171661377 2.565999984741211,2.7219996452331543 c0.059000011533498764,0.00800000037997961 65.85199737548828,0 65.85199737548828,0 c13.123000144958496,0 23.753999710083008,-10.51200008392334 23.753999710083008,-23.635000228881836 C243.61212784051895,78.80569458007812 232.98111587762833,68.16869354248047 219.85809952020645,68.16869354248047 z" id="svg_41" fill="#000000" fill-opacity="1"/></g><path style="" d="M69.43810898065567,129.85768127441406 c-2.7809998989105225,-0.6550001502037048 -3.5329999923706055,-1.0099999904632568 -3.5329999923706055,-2.1080000400543213 c0,-0.7739998698234558 0.6270001530647278,-1.5789999961853027 2.507999897003174,-1.5789999961853027 c1.6080000400543213,0 2.861999988555908,0.648000180721283 3.990999937057495,1.809000015258789 l2.5380001068115234,-2.4570000171661377 c-1.6600000858306885,-1.7319999933242798 -3.6670000553131104,-2.7669999599456787 -6.4029998779296875,-2.7669999599456787 c-3.4590001106262207,0 -6.269999980926514,1.9620000123977661 -6.269999980926514,5.14900016784668 c0,3.4590001106262207 2.256999969482422,4.492000102996826 5.495999813079834,5.236000061035156 c3.312000036239624,0.7519998550415039 3.9100000858306885,1.2619999647140503 3.9100000858306885,2.3910000324249268 c0,1.3280000686645508 -0.9810000061988831,1.9100000858306885 -3.062000036239624,1.9100000858306885 c-1.681999921798706,0 -3.259999990463257,-0.5819998383522034 -4.492000102996826,-2.0139999389648438 l-2.5299999713897705,2.257999897003174 c1.3280000686645508,1.9550001621246338 3.888000011444092,3.187000036239624 6.822999954223633,3.187000036239624 c4.788000106811523,0 6.90500020980835,-2.25 6.90500020980835,-5.5929999351501465 C75.31810623407364,131.45968627929688 72.22711044549942,130.51669311523438 69.43810898065567,129.85768127441406 zM85.6011033654213,122.75569152832031 c-4.788000106811523,0 -7.619999885559082,3.7179999351501465 -7.619999885559082,9.0600004196167 c0,5.348999977111816 2.8330001831054688,9.059000015258789 7.619999885559082,9.059000015258789 c4.795000076293945,0 7.626999855041504,-3.7100000381469727 7.626999855041504,-9.059000015258789 C93.22810989618301,126.47367858886719 90.39610916376114,122.75569152832031 85.6011033654213,122.75569152832031 zM85.6011033654213,137.39169311523438 c-2.8330001831054688,0 -4.013000011444092,-2.440999984741211 -4.013000011444092,-5.576000213623047 s1.1800000667572021,-5.569000244140625 4.013000011444092,-5.569000244140625 c2.8400001525878906,0 4.019999980926514,2.434999942779541 4.019999980926514,5.569000244140625 C89.62111526727676,134.94769287109375 88.44111496210098,137.39169311523438 85.6011033654213,137.39169311523438 zM107.4071107506752,132.898681640625 c0,2.802999973297119 -1.3799999952316284,4.543000221252441 -3.6070001125335693,4.543000221252441 c-2.234999895095825,0 -3.5929999351501465,-1.7849998474121094 -3.5929999351501465,-4.5960001945495605 v-9.812000274658203 h-3.510999917984009 v9.86299991607666 c0,5.11899995803833 2.861999988555908,7.974999904632568 7.104000091552734,7.974999904632568 c4.4629998207092285,0 7.11899995803833,-2.936000108718872 7.11899995803833,-8.024999618530273 v-9.812000274658203 h-3.510999917984009 L107.4071107506752,132.898681640625 L107.4071107506752,132.898681640625 zM126.07611709833145,130.46469116210938 c0,0.9740001559257507 0.044000010937452316,3.187000036239624 0.044000010937452316,3.8359999656677246 c-0.22100000083446503,-0.45000001788139343 -0.7959997653961182,-1.3270000219345093 -1.225000023841858,-1.9830000400543213 l-6.2270002365112305,-9.279999732971191 h-3.36299991607666 v17.562999725341797 h3.4670000076293945 v-7.730000019073486 c0,-0.9800000190734863 -0.0520000122487545,-3.187999963760376 -0.0520000122487545,-3.8359999656677246 c0.2290000021457672,0.4490000009536743 0.8040000200271606,1.3280000686645508 1.225000023841858,1.9839999675750732 l6.454999923706055,9.581999778747559 h3.134999990463257 v-17.562999725341797 h-3.4600000381469727 V130.46469116210938 zM139.54711014032364,123.03569030761719 h-5.48799991607666 v17.56399917602539 h5.236999988555908 c4.515999794006348,0 8.986000061035156,-2.6110000610351562 8.986000061035156,-8.786999702453613 C148.2821107506752,125.38967895507812 144.5631166100502,123.03569030761719 139.54711014032364,123.03569030761719 zM139.29611831903458,137.1846923828125 h-1.7319999933242798 V126.45268249511719 h1.8659999370574951 c3.7100000381469727,0 5.244999885559082,1.7760000228881836 5.244999885559082,5.361999988555908 C144.67311722040176,135.02967834472656 142.98410660028458,137.1846923828125 139.29611831903458,137.1846923828125 zM159.1471009850502,126.24468994140625 c1.5780000686645508,0 2.5820000171661377,0.7080000042915344 3.2170000076293945,1.9019999504089355 l3.252000093460083,-1.496000051498413 c-1.1050000190734863,-2.2869999408721924 -3.1040000915527344,-3.8959999084472656 -6.418000221252441,-3.8959999084472656 c-4.593999862670898,0 -7.802999973297119,3.7189998626708984 -7.802999973297119,9.059000015258789 c0,5.548999786376953 3.0820000171661377,9.0600004196167 7.677999973297119,9.0600004196167 c3.187999963760376,0 5.289000034332275,-1.4760000705718994 6.5,-3.9700000286102295 l-2.9670000076293945,-1.75600004196167 c-0.9290000200271606,1.558000087738037 -1.8519999980926514,2.24399995803833 -3.437999963760376,2.24399995803833 c-2.632999897003174,0 -4.168000221252441,-2.4200000762939453 -4.168000221252441,-5.578000068664551 C155.0001283288002,128.55368041992188 156.5131135582924,126.24468994140625 159.1471009850502,126.24468994140625 zM172.17410904169083,123.03569030761719 h-3.51200008392334 v17.56399917602539 h10.562000274658203 v-3.4609999656677246 h-7.052999973297119 v-14.104000091552734 H172.17410904169083 zM188.4691224694252,122.75569152832031 c-4.788000106811523,0 -7.629000186920166,3.7179999351501465 -7.629000186920166,9.0600004196167 c0,5.348999977111816 2.8410000801086426,9.059000015258789 7.629000186920166,9.059000015258789 c4.795000076293945,0 7.635000228881836,-3.7100000381469727 7.635000228881836,-9.059000015258789 C196.10410171747208,126.47367858886719 193.26410537958145,122.75569152832031 188.4691224694252,122.75569152832031 zM188.4691224694252,137.39169311523438 c-2.8330001831054688,0 -4.013999938964844,-2.440999984741211 -4.013999938964844,-5.576000213623047 s1.180999994277954,-5.569000244140625 4.013999938964844,-5.569000244140625 c2.8400001525878906,0 4.013999938964844,2.434999942779541 4.013999938964844,5.569000244140625 C192.4831147789955,134.94769287109375 191.30911880731583,137.39169311523438 188.4691224694252,137.39169311523438 zM210.27609878778458,132.898681640625 c0,2.802999973297119 -1.3730000257492065,4.543000221252441 -3.6070001125335693,4.543000221252441 c-2.234999895095825,0 -3.5940001010894775,-1.7849998474121094 -3.5940001010894775,-4.5960001945495605 v-9.812000274658203 h-3.509999990463257 v9.86299991607666 c0,5.11899995803833 2.8610000610351562,7.974999904632568 7.104000091552734,7.974999904632568 c4.4629998207092285,0 7.125,-2.936000108718872 7.125,-8.024999618530273 v-9.812000274658203 h-3.5180001258850098 V132.898681640625 zM223.67812210321426,123.03569030761719 h-5.495999813079834 v17.56399917602539 h5.236000061035156 c4.5289998054504395,0 8.986000061035156,-2.6110000610351562 8.986000061035156,-8.786999702453613 C232.40512710809708,125.38967895507812 228.70111709833145,123.03569030761719 223.67812210321426,123.03569030761719 zM223.41812759637833,137.1846923828125 h-1.7249999046325684 V126.45268249511719 h1.8570001125335693 c3.7109999656677246,0 5.236000061035156,1.7760000228881836 5.236000061035156,5.361999988555908 C228.78909927606583,135.02967834472656 227.11611038446426,137.1846923828125 223.41812759637833,137.1846923828125 z" id="svg_42" fill="#000000" fill-opacity="1"/></g></g><g style="display:none;" id="svg_43"><g style="display:inline;" id="svg_44"><g id="svg_45"><path style="fill:#F6F6F6;" d="M37.763,116.885c-0.413,0-0.752,0.332-0.804,0.79l-1.903,17.343l1.903,16.959 c0.052,0.457,0.391,0.781,0.804,0.781c0.406,0,0.738-0.324,0.804-0.775l2.154-16.965l-2.154-17.351 C38.501,117.209,38.169,116.885,37.763,116.885z" id="svg_46"/><path style="fill:#F6F6F6;" d="M30.623,123.531c-0.406,0-0.723,0.31-0.775,0.76l-1.416,10.727l1.416,10.541 c0.052,0.441,0.369,0.76,0.775,0.76c0.391,0,0.708-0.317,0.774-0.754l1.667-10.547l-1.667-10.733 C31.331,123.841,31.014,123.531,30.623,123.531z" id="svg_47"/><path style="fill:#F6F6F6;" d="M45.347,113.492c-0.509,0-0.915,0.398-0.967,0.944l-1.8,20.582l1.8,19.828 c0.052,0.547,0.458,0.944,0.967,0.944c0.501,0,0.907-0.397,0.974-0.944l2.043-19.828l-2.043-20.582 C46.254,113.882,45.848,113.492,45.347,113.492z" id="svg_48"/><path style="fill:#F6F6F6;" d="M52.996,112.761c-0.598,0-1.084,0.479-1.129,1.114l-1.704,21.143l1.704,20.463 c0.044,0.635,0.531,1.106,1.129,1.106s1.084-0.474,1.136-1.106l1.933-20.463l-1.933-21.143 C54.081,113.241,53.594,112.761,52.996,112.761z" id="svg_49"/><polygon style="fill:#F6F6F6;" points="62.003,155.643 62.003,155.648 62.003,155.648 " id="svg_50"/><path style="fill:#F6F6F6;" d="M62.003,115.402c-0.044-0.723-0.605-1.276-1.291-1.276c-0.701,0-1.254,0.553-1.298,1.284 l-1.608,19.613l1.608,20.627c0.044,0.723,0.598,1.274,1.298,1.274c0.686,0,1.247-0.553,1.291-1.274l1.83-20.627L62.003,115.402z" id="svg_51"/><path style="fill:#F6F6F6;" d="M68.487,101.674c-0.782,0-1.424,0.634-1.461,1.446l-1.512,31.911l1.512,20.627 c0.037,0.803,0.679,1.438,1.461,1.438c0.767,0,1.409-0.635,1.46-1.445v0.009l1.704-20.626l-1.704-31.919 C69.896,102.308,69.254,101.674,68.487,101.674z" id="svg_52"/><path style="fill:#F6F6F6;" d="M76.203,94.319c-0.878,0-1.593,0.708-1.63,1.616l-1.409,39.208l1.409,20.492 c0.037,0.899,0.752,1.608,1.63,1.608c0.863,0,1.586-0.709,1.623-1.608v0.008l1.602-20.5l-1.602-39.208 C77.789,95.028,77.066,94.319,76.203,94.319z" id="svg_53"/><path style="fill:#F6F6F6;" d="M84.222,90.779c-0.974,0-1.763,0.782-1.792,1.777l-1.321,42.483l1.321,20.286 c0.029,0.987,0.819,1.771,1.792,1.771c0.959,0,1.748-0.781,1.785-1.785v0.016l1.481-20.286l-1.481-42.483 C85.97,91.561,85.181,90.779,84.222,90.779z" id="svg_54"/><path style="fill:#F6F6F6;" d="M94.136,91.125c-0.037-1.084-0.894-1.948-1.955-1.948c-1.07,0-1.933,0.863-1.955,1.948 l-1.224,43.914l1.224,20.161c0.022,1.075,0.885,1.932,1.955,1.932c1.062,0,1.918-0.854,1.955-1.938l1.372-20.153L94.136,91.125z" id="svg_55"/><polygon style="fill:#F6F6F6;" points="94.136,155.186 94.136,155.191 94.136,155.2 " id="svg_56"/><path style="fill:#F6F6F6;" d="M100.199,90.144c-1.158,0-2.095,0.922-2.117,2.11l-1.122,42.785l1.122,19.977 c0.022,1.166,0.959,2.096,2.117,2.096c1.158,0,2.088-0.93,2.125-2.109v0.014l1.254-19.976l-1.254-42.792 C102.287,91.066,101.357,90.144,100.199,90.144z" id="svg_57"/><path style="fill:#F6F6F6;" d="M108.284,91.539c-1.254,0-2.257,1.003-2.287,2.279l-1.018,41.229l1.025,19.842 c0.022,1.264,1.025,2.26,2.279,2.26c1.254,0,2.266-0.996,2.287-2.272v0.015l1.15-19.843l-1.15-41.236 C110.549,92.542,109.539,91.539,108.284,91.539z" id="svg_58"/><path style="fill:#F6F6F6;" d="M117.786,83.962c-0.391-0.266-0.855-0.42-1.35-0.42c-0.487,0-0.944,0.147-1.328,0.398 c-0.664,0.435-1.114,1.188-1.122,2.043l-0.015,0.465l-0.915,48.59c0,0.028,0.929,19.717,0.929,19.717s0,0.062,0,0.091 c0.03,0.545,0.236,1.053,0.576,1.459c0.442,0.531,1.121,0.885,1.874,0.885c0.664,0,1.269-0.271,1.711-0.715 c0.443-0.443,0.723-1.055,0.738-1.726l0.103-1.946l0.93-17.75l-1.033-49.07C118.87,85.143,118.435,84.398,117.786,83.962z" id="svg_59"/><polygon style="fill:#F6F6F6;" points="118.885,154.764 118.885,154.756 118.885,154.764 118.885,154.75 118.885,154.742 118.885,154.75 118.885,154.756 " id="svg_60"/><path style="fill:#F6F6F6;" d="M125.878,79.308c-0.391-0.236-0.849-0.376-1.335-0.376c-0.62,0-1.195,0.229-1.645,0.598 c-0.583,0.479-0.959,1.202-0.966,2.014l-0.007,0.266l-1.069,53.245l0.546,9.85l0.531,9.574c0.015,1.422,1.188,2.588,2.611,2.588 c1.425,0,2.597-1.166,2.619-2.609v0.021l0,0l1.157-19.424l0,0l-1.157-53.518C127.146,80.591,126.63,79.765,125.878,79.308z" id="svg_61"/><path style="fill:#F6F6F6;" d="M197.814,109.729c-3.252,0-6.357,0.656-9.19,1.844c-1.89-21.407-19.845-38.204-41.737-38.204 c-5.363,0-10.586,1.047-15.203,2.84c-1.793,0.693-2.265,1.402-2.287,2.789v75.396c0.022,1.453,1.15,2.582,2.568,2.729 c0.059,0,65.852,0,65.852,0c13.123,0,23.752-10.52,23.752-23.643C221.568,120.359,210.938,109.729,197.814,109.729z" id="svg_62"/></g><path style="fill:#F6F6F6;" d="M47.397,171.413c-2.781-0.656-3.533-1.004-3.533-2.108c0-0.775,0.627-1.578,2.508-1.578 c1.608,0,2.862,0.655,3.991,1.807l2.538-2.457c-1.66-1.727-3.667-2.758-6.403-2.758c-3.459,0-6.27,1.955-6.27,5.141 c0,3.467,2.257,4.492,5.496,5.246c3.312,0.752,3.91,1.254,3.91,2.381c0,1.336-0.981,1.912-3.062,1.912 c-1.682,0-3.26-0.576-4.492-2.014l-2.53,2.256c1.328,1.963,3.887,3.188,6.823,3.188c4.788,0,6.905-2.25,6.905-5.592 C53.276,173.021,50.186,172.068,47.397,171.413z M63.56,164.316c-4.788,0-7.62,3.709-7.62,9.06c0,5.349,2.833,9.052,7.62,9.052 c4.795,0,7.627-3.703,7.627-9.052C71.187,168.025,68.354,164.316,63.56,164.316z M63.56,178.943c-2.833,0-4.013-2.434-4.013-5.567 s1.18-5.569,4.013-5.569c2.84,0,4.02,2.436,4.02,5.569S66.399,178.943,63.56,178.943z M85.365,174.452 c0,2.812-1.38,4.545-3.606,4.545c-2.235,0-3.593-1.785-3.593-4.597v-9.812h-3.511v9.863c0,5.118,2.862,7.976,7.104,7.976 c4.463,0,7.119-2.937,7.119-8.025v-9.812h-3.511L85.365,174.452L85.365,174.452z M104.035,172.02c0,0.979,0.044,3.186,0.044,3.844 c-0.221-0.459-0.796-1.336-1.225-1.992l-6.226-9.281h-3.363v17.564h3.467v-7.73c0-0.975-0.052-3.18-0.052-3.836 c0.229,0.449,0.804,1.328,1.225,1.984l6.455,9.582h3.135V164.59h-3.46V172.02z M117.505,164.589h-5.488v17.563h5.237 c4.515,0,8.984-2.61,8.984-8.776C126.238,166.95,122.521,164.589,117.505,164.589z M117.254,178.745h-1.733v-10.74h1.866 c3.71,0,5.245,1.776,5.245,5.371C122.632,176.585,120.943,178.745,117.254,178.745z M137.105,167.807 c1.578,0,2.582,0.7,3.215,1.903l3.254-1.506c-1.105-2.287-3.105-3.888-6.418-3.888c-4.596,0-7.805,3.709-7.805,9.06 c0,5.539,3.084,9.052,7.68,9.052c3.188,0,5.289-1.476,6.498-3.962l-2.965-1.756c-0.93,1.558-1.853,2.233-3.438,2.233 c-2.634,0-4.168-2.412-4.168-5.567C132.959,170.113,134.473,167.807,137.105,167.807z M150.133,164.589h-3.512v17.563h10.562 v-3.459h-7.051V164.589L150.133,164.589z M166.428,164.316c-4.787,0-7.627,3.709-7.627,9.06c0,5.349,2.84,9.052,7.627,9.052 c4.795,0,7.635-3.703,7.635-9.052C174.062,168.025,171.223,164.316,166.428,164.316z M166.428,178.943 c-2.832,0-4.014-2.434-4.014-5.567s1.182-5.569,4.014-5.569c2.84,0,4.014,2.436,4.014,5.569S169.268,178.943,166.428,178.943z M188.232,174.452c0,2.812-1.371,4.545-3.606,4.545s-3.593-1.785-3.593-4.597v-9.812h-3.512v9.863 c0,5.118,2.863,7.976,7.104,7.976c4.464,0,7.126-2.937,7.126-8.025v-9.812h-3.52V174.452z M201.637,164.589h-5.496v17.563h5.237 c4.528,0,8.985-2.61,8.985-8.776C210.363,166.95,206.66,164.589,201.637,164.589z M201.378,178.745h-1.726v-10.74h1.857 c3.711,0,5.237,1.776,5.237,5.371C206.748,176.585,205.074,178.745,201.378,178.745z" id="svg_63"/></g></g></g></svg>